<mxfile host="app.diagrams.net" agent="Mozilla/5.0 (Windows NT 10.0; Win64; x64) AppleWebKit/537.36 (KHTML, like Gecko) Chrome/134.0.0.0 Safari/537.36 Edg/134.0.0.0" version="26.1.1">
  <diagram name="第 1 页" id="_p5r5UNzx_XP5cNZ_AdQ">
    <mxGraphModel dx="1002" dy="617" grid="1" gridSize="10" guides="1" tooltips="1" connect="1" arrows="1" fold="1" page="1" pageScale="1" pageWidth="827" pageHeight="1169" math="0" shadow="0">
      <root>
        <mxCell id="0" />
        <mxCell id="1" parent="0" />
        <mxCell id="_SBXEmpweWQkAsb3bLJq-1" value="用户" style="shape=umlActor;verticalLabelPosition=bottom;verticalAlign=top;html=1;outlineConnect=0;" parent="1" vertex="1">
          <mxGeometry x="200" y="130" width="30" height="60" as="geometry" />
        </mxCell>
        <mxCell id="_SBXEmpweWQkAsb3bLJq-2" value="" style="endArrow=none;dashed=1;html=1;dashPattern=1 3;strokeWidth=2;rounded=0;" parent="1" edge="1">
          <mxGeometry width="50" height="50" relative="1" as="geometry">
            <mxPoint x="215" y="380" as="sourcePoint" />
            <mxPoint x="214.5" y="220" as="targetPoint" />
          </mxGeometry>
        </mxCell>
        <mxCell id="_SBXEmpweWQkAsb3bLJq-3" value="搜索平台" style="rounded=0;whiteSpace=wrap;html=1;" parent="1" vertex="1">
          <mxGeometry x="360" y="137.5" width="90" height="45" as="geometry" />
        </mxCell>
        <mxCell id="_SBXEmpweWQkAsb3bLJq-4" value="" style="endArrow=none;dashed=1;html=1;dashPattern=1 3;strokeWidth=2;rounded=0;" parent="1" source="_SBXEmpweWQkAsb3bLJq-21" edge="1">
          <mxGeometry width="50" height="50" relative="1" as="geometry">
            <mxPoint x="405" y="520" as="sourcePoint" />
            <mxPoint x="404.5800000000001" y="182.5" as="targetPoint" />
          </mxGeometry>
        </mxCell>
        <mxCell id="_SBXEmpweWQkAsb3bLJq-7" value="" style="endArrow=classic;html=1;rounded=0;entryX=0;entryY=0;entryDx=0;entryDy=0;" parent="1" target="_SBXEmpweWQkAsb3bLJq-9" edge="1">
          <mxGeometry width="50" height="50" relative="1" as="geometry">
            <mxPoint x="220" y="260" as="sourcePoint" />
            <mxPoint x="390" y="261" as="targetPoint" />
          </mxGeometry>
        </mxCell>
        <mxCell id="_SBXEmpweWQkAsb3bLJq-8" value="1：提交Config文件" style="edgeLabel;html=1;align=center;verticalAlign=middle;resizable=0;points=[];" parent="_SBXEmpweWQkAsb3bLJq-7" vertex="1" connectable="0">
          <mxGeometry x="-0.1163" y="1" relative="1" as="geometry">
            <mxPoint x="3" y="1" as="offset" />
          </mxGeometry>
        </mxCell>
        <mxCell id="_SBXEmpweWQkAsb3bLJq-9" value="" style="rounded=1;whiteSpace=wrap;html=1;" parent="1" vertex="1">
          <mxGeometry x="395" y="260" width="20" height="30" as="geometry" />
        </mxCell>
        <mxCell id="_SBXEmpweWQkAsb3bLJq-10" value="" style="endArrow=classic;html=1;rounded=0;" parent="1" edge="1">
          <mxGeometry width="50" height="50" relative="1" as="geometry">
            <mxPoint x="414" y="280" as="sourcePoint" />
            <mxPoint x="592" y="280" as="targetPoint" />
          </mxGeometry>
        </mxCell>
        <mxCell id="_SBXEmpweWQkAsb3bLJq-11" value="2：维护人员查阅" style="edgeLabel;html=1;align=center;verticalAlign=middle;resizable=0;points=[];" parent="_SBXEmpweWQkAsb3bLJq-10" vertex="1" connectable="0">
          <mxGeometry x="-0.166" y="1" relative="1" as="geometry">
            <mxPoint x="22" y="1" as="offset" />
          </mxGeometry>
        </mxCell>
        <mxCell id="_SBXEmpweWQkAsb3bLJq-14" value="" style="endArrow=classic;html=1;rounded=0;exitX=0;exitY=1;exitDx=0;exitDy=0;" parent="1" edge="1">
          <mxGeometry width="50" height="50" relative="1" as="geometry">
            <mxPoint x="600" y="310" as="sourcePoint" />
            <mxPoint x="415" y="310" as="targetPoint" />
          </mxGeometry>
        </mxCell>
        <mxCell id="_SBXEmpweWQkAsb3bLJq-15" value="3：通过申请" style="edgeLabel;html=1;align=center;verticalAlign=middle;resizable=0;points=[];" parent="_SBXEmpweWQkAsb3bLJq-14" vertex="1" connectable="0">
          <mxGeometry x="0.3385" y="1" relative="1" as="geometry">
            <mxPoint x="35" y="-1" as="offset" />
          </mxGeometry>
        </mxCell>
        <mxCell id="_SBXEmpweWQkAsb3bLJq-20" value="" style="endArrow=none;dashed=1;html=1;dashPattern=1 3;strokeWidth=2;rounded=0;" parent="1" target="_SBXEmpweWQkAsb3bLJq-21" edge="1">
          <mxGeometry width="50" height="50" relative="1" as="geometry">
            <mxPoint x="405" y="380" as="sourcePoint" />
            <mxPoint x="404.5800000000001" y="182.5" as="targetPoint" />
          </mxGeometry>
        </mxCell>
        <mxCell id="_SBXEmpweWQkAsb3bLJq-21" value="" style="rounded=1;whiteSpace=wrap;html=1;" parent="1" vertex="1">
          <mxGeometry x="395" y="310" width="20" height="30" as="geometry" />
        </mxCell>
        <mxCell id="_SBXEmpweWQkAsb3bLJq-22" value="维护人员" style="shape=umlActor;verticalLabelPosition=bottom;verticalAlign=top;html=1;outlineConnect=0;" parent="1" vertex="1">
          <mxGeometry x="590" y="130" width="30" height="60" as="geometry" />
        </mxCell>
        <mxCell id="_SBXEmpweWQkAsb3bLJq-23" value="" style="endArrow=none;dashed=1;html=1;dashPattern=1 3;strokeWidth=2;rounded=0;" parent="1" edge="1">
          <mxGeometry width="50" height="50" relative="1" as="geometry">
            <mxPoint x="605" y="380" as="sourcePoint" />
            <mxPoint x="604.5" y="220" as="targetPoint" />
          </mxGeometry>
        </mxCell>
        <mxCell id="_SBXEmpweWQkAsb3bLJq-27" value="" style="rounded=1;whiteSpace=wrap;html=1;" parent="1" vertex="1">
          <mxGeometry x="595" y="280" width="20" height="30" as="geometry" />
        </mxCell>
      </root>
    </mxGraphModel>
  </diagram>
</mxfile>
